<mxfile host="app.diagrams.net" modified="2023-10-09T09:11:19.328Z" agent="Mozilla/5.0 (X11; Linux x86_64) AppleWebKit/537.36 (KHTML, like Gecko) Chrome/117.0.0.0 Safari/537.36" etag="_ebM1nTF24G2DBaK_Ufh" version="21.8.2" type="device">
  <diagram name="Page-1" id="xji_t6E01k4K7b1UCClU">
    <mxGraphModel dx="2270" dy="810" grid="1" gridSize="10" guides="1" tooltips="1" connect="1" arrows="1" fold="1" page="1" pageScale="1" pageWidth="850" pageHeight="1100" math="0" shadow="0">
      <root>
        <mxCell id="0" />
        <mxCell id="1" parent="0" />
        <mxCell id="RnnJeEHu4AmgaNz4vwLU-2" value="DHL in neu" style="text;html=1;strokeColor=none;fillColor=none;align=center;verticalAlign=middle;whiteSpace=wrap;rounded=0;" vertex="1" parent="1">
          <mxGeometry x="425" y="50" width="60" height="30" as="geometry" />
        </mxCell>
        <mxCell id="RnnJeEHu4AmgaNz4vwLU-5" style="edgeStyle=orthogonalEdgeStyle;rounded=0;orthogonalLoop=1;jettySize=auto;html=1;entryX=0;entryY=0.5;entryDx=0;entryDy=0;" edge="1" parent="1" source="RnnJeEHu4AmgaNz4vwLU-3" target="RnnJeEHu4AmgaNz4vwLU-4">
          <mxGeometry relative="1" as="geometry" />
        </mxCell>
        <mxCell id="RnnJeEHu4AmgaNz4vwLU-3" value="Kunde bestellt Paket" style="rounded=1;whiteSpace=wrap;html=1;" vertex="1" parent="1">
          <mxGeometry x="100" y="190" width="120" height="60" as="geometry" />
        </mxCell>
        <mxCell id="RnnJeEHu4AmgaNz4vwLU-9" style="edgeStyle=orthogonalEdgeStyle;rounded=0;orthogonalLoop=1;jettySize=auto;html=1;entryX=0;entryY=0.5;entryDx=0;entryDy=0;" edge="1" parent="1" source="RnnJeEHu4AmgaNz4vwLU-4" target="RnnJeEHu4AmgaNz4vwLU-7">
          <mxGeometry relative="1" as="geometry" />
        </mxCell>
        <mxCell id="RnnJeEHu4AmgaNz4vwLU-11" style="edgeStyle=orthogonalEdgeStyle;rounded=0;orthogonalLoop=1;jettySize=auto;html=1;entryX=0;entryY=0.5;entryDx=0;entryDy=0;" edge="1" parent="1" source="RnnJeEHu4AmgaNz4vwLU-4" target="RnnJeEHu4AmgaNz4vwLU-8">
          <mxGeometry relative="1" as="geometry" />
        </mxCell>
        <mxCell id="RnnJeEHu4AmgaNz4vwLU-4" value="Bestellung geht ein (bei UNS)" style="rounded=1;whiteSpace=wrap;html=1;" vertex="1" parent="1">
          <mxGeometry x="480" y="190" width="120" height="60" as="geometry" />
        </mxCell>
        <mxCell id="RnnJeEHu4AmgaNz4vwLU-6" value="Komminikation" style="text;html=1;strokeColor=none;fillColor=none;align=center;verticalAlign=middle;whiteSpace=wrap;rounded=0;" vertex="1" parent="1">
          <mxGeometry x="320" y="190" width="60" height="30" as="geometry" />
        </mxCell>
        <mxCell id="RnnJeEHu4AmgaNz4vwLU-7" value="Verzeichnis mit Fahrern" style="rounded=1;whiteSpace=wrap;html=1;" vertex="1" parent="1">
          <mxGeometry x="830" y="110" width="120" height="60" as="geometry" />
        </mxCell>
        <mxCell id="RnnJeEHu4AmgaNz4vwLU-8" value="Fahrer" style="rounded=1;whiteSpace=wrap;html=1;" vertex="1" parent="1">
          <mxGeometry x="830" y="250" width="120" height="60" as="geometry" />
        </mxCell>
        <mxCell id="RnnJeEHu4AmgaNz4vwLU-10" value="Abfrage an Ver" style="text;html=1;strokeColor=none;fillColor=none;align=center;verticalAlign=middle;whiteSpace=wrap;rounded=0;" vertex="1" parent="1">
          <mxGeometry x="720" y="110" width="60" height="30" as="geometry" />
        </mxCell>
        <mxCell id="RnnJeEHu4AmgaNz4vwLU-12" value="SMS EMAIL mit Auftrag" style="text;html=1;strokeColor=none;fillColor=none;align=center;verticalAlign=middle;whiteSpace=wrap;rounded=0;" vertex="1" parent="1">
          <mxGeometry x="740" y="240" width="60" height="30" as="geometry" />
        </mxCell>
        <mxCell id="RnnJeEHu4AmgaNz4vwLU-15" style="edgeStyle=orthogonalEdgeStyle;rounded=0;orthogonalLoop=1;jettySize=auto;html=1;entryX=0;entryY=0.5;entryDx=0;entryDy=0;" edge="1" parent="1" source="RnnJeEHu4AmgaNz4vwLU-13" target="RnnJeEHu4AmgaNz4vwLU-14">
          <mxGeometry relative="1" as="geometry" />
        </mxCell>
        <mxCell id="RnnJeEHu4AmgaNz4vwLU-13" value="API" style="rounded=1;whiteSpace=wrap;html=1;fillColor=#f8cecc;strokeColor=#b85450;" vertex="1" parent="1">
          <mxGeometry x="100" y="550" width="120" height="60" as="geometry" />
        </mxCell>
        <mxCell id="RnnJeEHu4AmgaNz4vwLU-18" style="edgeStyle=orthogonalEdgeStyle;rounded=0;orthogonalLoop=1;jettySize=auto;html=1;entryX=0;entryY=0.5;entryDx=0;entryDy=0;" edge="1" parent="1" source="RnnJeEHu4AmgaNz4vwLU-14" target="RnnJeEHu4AmgaNz4vwLU-17">
          <mxGeometry relative="1" as="geometry" />
        </mxCell>
        <mxCell id="RnnJeEHu4AmgaNz4vwLU-14" value="Bestellung an UNS" style="rounded=1;whiteSpace=wrap;html=1;" vertex="1" parent="1">
          <mxGeometry x="460" y="550" width="120" height="60" as="geometry" />
        </mxCell>
        <mxCell id="RnnJeEHu4AmgaNz4vwLU-16" value="Lambda erstellt Bestellung" style="text;html=1;strokeColor=none;fillColor=none;align=center;verticalAlign=middle;whiteSpace=wrap;rounded=0;" vertex="1" parent="1">
          <mxGeometry x="290" y="550" width="100" height="30" as="geometry" />
        </mxCell>
        <mxCell id="RnnJeEHu4AmgaNz4vwLU-23" style="edgeStyle=orthogonalEdgeStyle;rounded=0;orthogonalLoop=1;jettySize=auto;html=1;" edge="1" parent="1" source="RnnJeEHu4AmgaNz4vwLU-17">
          <mxGeometry relative="1" as="geometry">
            <mxPoint x="860" y="640" as="targetPoint" />
          </mxGeometry>
        </mxCell>
        <mxCell id="RnnJeEHu4AmgaNz4vwLU-17" value="DynamoDB" style="rounded=1;whiteSpace=wrap;html=1;" vertex="1" parent="1">
          <mxGeometry x="800" y="460" width="120" height="60" as="geometry" />
        </mxCell>
        <mxCell id="RnnJeEHu4AmgaNz4vwLU-19" value="Eintrag" style="text;html=1;strokeColor=none;fillColor=none;align=center;verticalAlign=middle;whiteSpace=wrap;rounded=0;" vertex="1" parent="1">
          <mxGeometry x="710" y="460" width="60" height="30" as="geometry" />
        </mxCell>
        <mxCell id="RnnJeEHu4AmgaNz4vwLU-20" value="DynamoDB" style="rounded=1;whiteSpace=wrap;html=1;verticalAlign=top;" vertex="1" parent="1">
          <mxGeometry x="1000" y="450" width="390" height="180" as="geometry" />
        </mxCell>
        <mxCell id="RnnJeEHu4AmgaNz4vwLU-21" value="Item" style="rounded=1;whiteSpace=wrap;html=1;verticalAlign=top;" vertex="1" parent="1">
          <mxGeometry x="1010" y="470" width="120" height="150" as="geometry" />
        </mxCell>
        <mxCell id="RnnJeEHu4AmgaNz4vwLU-22" value="Werte" style="rounded=1;whiteSpace=wrap;html=1;" vertex="1" parent="1">
          <mxGeometry x="1025" y="500" width="90" height="110" as="geometry" />
        </mxCell>
        <mxCell id="RnnJeEHu4AmgaNz4vwLU-24" value="Werte werden exportiert" style="text;html=1;strokeColor=none;fillColor=none;align=center;verticalAlign=middle;whiteSpace=wrap;rounded=0;" vertex="1" parent="1">
          <mxGeometry x="790" y="550" width="60" height="30" as="geometry" />
        </mxCell>
        <mxCell id="RnnJeEHu4AmgaNz4vwLU-25" value="&lt;span style=&quot;color: rgb(60, 64, 67); font-family: Roboto, Arial, sans-serif; font-size: 14px; font-style: normal; font-variant-ligatures: normal; font-variant-caps: normal; font-weight: 400; letter-spacing: 0.2px; orphans: 2; text-align: start; text-indent: 0px; text-transform: none; widows: 2; word-spacing: 0px; -webkit-text-stroke-width: 0px; text-decoration-thickness: initial; text-decoration-style: initial; text-decoration-color: initial; float: none; display: inline !important;&quot;&gt;2 Fahrerzuweisung&lt;/span&gt;&lt;ul style=&quot;-webkit-tap-highlight-color: transparent; list-style: disc; margin: 1em 0px; padding: 0px 0px 0px 40px; color: rgb(60, 64, 67); font-family: Roboto, Arial, sans-serif; font-size: 14px; font-style: normal; font-variant-ligatures: normal; font-variant-caps: normal; font-weight: 400; letter-spacing: 0.2px; orphans: 2; text-align: start; text-indent: 0px; text-transform: none; widows: 2; word-spacing: 0px; -webkit-text-stroke-width: 0px; text-decoration-thickness: initial; text-decoration-style: initial; text-decoration-color: initial;&quot;&gt;&lt;li style=&quot;-webkit-tap-highlight-color: transparent;&quot;&gt;&amp;nbsp;Automatische Zuweisung eines Fahrers nach Bestellungserstellung.&lt;/li&gt;&lt;li style=&quot;-webkit-tap-highlight-color: transparent;&quot;&gt;Nachricht wird an eine Warteschlange für Fahrerzuweisung gesendet.&lt;/li&gt;&lt;li style=&quot;-webkit-tap-highlight-color: transparent;&quot;&gt;Keine Bestellung geht verloren, unabhängig von Systemlast.&lt;/li&gt;&lt;/ul&gt;" style="text;whiteSpace=wrap;html=1;" vertex="1" parent="1">
          <mxGeometry x="450" y="690" width="520" height="120" as="geometry" />
        </mxCell>
        <mxCell id="RnnJeEHu4AmgaNz4vwLU-26" value="Fahrer" style="rounded=1;whiteSpace=wrap;html=1;verticalAlign=top;fillColor=#f8cecc;strokeColor=#b85450;" vertex="1" parent="1">
          <mxGeometry x="1150" y="470" width="120" height="150" as="geometry" />
        </mxCell>
        <mxCell id="RnnJeEHu4AmgaNz4vwLU-27" value="Fahrer_ID&lt;br&gt;status&lt;br&gt;EMAIL&lt;br&gt;Lieferung null&amp;nbsp;&lt;br&gt;&lt;font color=&quot;#4eff21&quot;&gt;TELNUMMER&lt;br&gt;Region, Zustellzentrum&lt;/font&gt;" style="rounded=1;whiteSpace=wrap;html=1;verticalAlign=top;fillColor=#f8cecc;strokeColor=#b85450;" vertex="1" parent="1">
          <mxGeometry x="1155" y="500" width="110" height="110" as="geometry" />
        </mxCell>
        <mxCell id="RnnJeEHu4AmgaNz4vwLU-28" value="&lt;span style=&quot;color: rgb(60, 64, 67); font-family: Roboto, Arial, sans-serif; font-size: 14px; font-style: normal; font-variant-ligatures: normal; font-variant-caps: normal; font-weight: 400; letter-spacing: 0.2px; orphans: 2; text-align: start; text-indent: 0px; text-transform: none; widows: 2; word-spacing: 0px; -webkit-text-stroke-width: 0px; text-decoration-thickness: initial; text-decoration-style: initial; text-decoration-color: initial; float: none; display: inline !important;&quot;&gt;3 Benachrichtigung des Fahrers&lt;/span&gt;&lt;ul style=&quot;-webkit-tap-highlight-color: transparent; list-style: disc; margin: 1em 0px; padding: 0px 0px 0px 40px; color: rgb(60, 64, 67); font-family: Roboto, Arial, sans-serif; font-size: 14px; font-style: normal; font-variant-ligatures: normal; font-variant-caps: normal; font-weight: 400; letter-spacing: 0.2px; orphans: 2; text-align: start; text-indent: 0px; text-transform: none; widows: 2; word-spacing: 0px; -webkit-text-stroke-width: 0px; text-decoration-thickness: initial; text-decoration-style: initial; text-decoration-color: initial;&quot;&gt;&lt;li style=&quot;-webkit-tap-highlight-color: transparent;&quot;&gt;Benachrichtigung des zugewiesenen Fahrers über eine neue Bestellung.&lt;/li&gt;&lt;li style=&quot;-webkit-tap-highlight-color: transparent;&quot;&gt;Eine Funktion ruft die Warteschlange für neue Bestellungen ab.&lt;/li&gt;&lt;li style=&quot;-webkit-tap-highlight-color: transparent;&quot;&gt;Bei Zuweisung wird der Fahrer benachrichtigt.&lt;/li&gt;&lt;/ul&gt;" style="text;whiteSpace=wrap;html=1;" vertex="1" parent="1">
          <mxGeometry x="450" y="800" width="560" height="120" as="geometry" />
        </mxCell>
        <mxCell id="RnnJeEHu4AmgaNz4vwLU-33" style="edgeStyle=orthogonalEdgeStyle;rounded=0;orthogonalLoop=1;jettySize=auto;html=1;entryX=0;entryY=0.5;entryDx=0;entryDy=0;" edge="1" parent="1" source="RnnJeEHu4AmgaNz4vwLU-29" target="RnnJeEHu4AmgaNz4vwLU-32">
          <mxGeometry relative="1" as="geometry" />
        </mxCell>
        <mxCell id="RnnJeEHu4AmgaNz4vwLU-29" value="Region" style="rounded=1;whiteSpace=wrap;html=1;" vertex="1" parent="1">
          <mxGeometry x="1710" y="525" width="120" height="60" as="geometry" />
        </mxCell>
        <mxCell id="RnnJeEHu4AmgaNz4vwLU-30" value="" style="endArrow=classic;html=1;rounded=0;" edge="1" parent="1">
          <mxGeometry width="50" height="50" relative="1" as="geometry">
            <mxPoint x="1530" y="560" as="sourcePoint" />
            <mxPoint x="1710" y="560" as="targetPoint" />
          </mxGeometry>
        </mxCell>
        <mxCell id="RnnJeEHu4AmgaNz4vwLU-31" value="Anfrage kommt rein" style="text;html=1;strokeColor=none;fillColor=none;align=center;verticalAlign=middle;whiteSpace=wrap;rounded=0;" vertex="1" parent="1">
          <mxGeometry x="1570" y="525" width="90" height="30" as="geometry" />
        </mxCell>
        <mxCell id="RnnJeEHu4AmgaNz4vwLU-39" style="edgeStyle=orthogonalEdgeStyle;rounded=0;orthogonalLoop=1;jettySize=auto;html=1;entryX=0;entryY=0.5;entryDx=0;entryDy=0;" edge="1" parent="1" source="RnnJeEHu4AmgaNz4vwLU-32" target="RnnJeEHu4AmgaNz4vwLU-35">
          <mxGeometry relative="1" as="geometry" />
        </mxCell>
        <mxCell id="RnnJeEHu4AmgaNz4vwLU-32" value="Status" style="rounded=1;whiteSpace=wrap;html=1;" vertex="1" parent="1">
          <mxGeometry x="1960" y="525" width="120" height="60" as="geometry" />
        </mxCell>
        <mxCell id="RnnJeEHu4AmgaNz4vwLU-40" style="edgeStyle=orthogonalEdgeStyle;rounded=0;orthogonalLoop=1;jettySize=auto;html=1;entryX=0;entryY=0.5;entryDx=0;entryDy=0;" edge="1" parent="1" source="RnnJeEHu4AmgaNz4vwLU-35" target="RnnJeEHu4AmgaNz4vwLU-36">
          <mxGeometry relative="1" as="geometry" />
        </mxCell>
        <mxCell id="RnnJeEHu4AmgaNz4vwLU-35" value="Dauer / Arbeitsaufwand" style="rounded=1;whiteSpace=wrap;html=1;" vertex="1" parent="1">
          <mxGeometry x="2190" y="525" width="120" height="60" as="geometry" />
        </mxCell>
        <mxCell id="RnnJeEHu4AmgaNz4vwLU-36" value="FahrerArbeitszeit und Auslastung" style="rounded=1;whiteSpace=wrap;html=1;" vertex="1" parent="1">
          <mxGeometry x="2430" y="525" width="120" height="60" as="geometry" />
        </mxCell>
        <mxCell id="RnnJeEHu4AmgaNz4vwLU-37" value="30 min" style="rounded=1;whiteSpace=wrap;html=1;" vertex="1" parent="1">
          <mxGeometry x="2190" y="640" width="120" height="60" as="geometry" />
        </mxCell>
        <mxCell id="RnnJeEHu4AmgaNz4vwLU-38" value="8:45" style="rounded=1;whiteSpace=wrap;html=1;" vertex="1" parent="1">
          <mxGeometry x="2430" y="640" width="120" height="60" as="geometry" />
        </mxCell>
        <mxCell id="RnnJeEHu4AmgaNz4vwLU-41" style="edgeStyle=orthogonalEdgeStyle;rounded=0;orthogonalLoop=1;jettySize=auto;html=1;entryX=0;entryY=0.5;entryDx=0;entryDy=0;" edge="1" parent="1" source="RnnJeEHu4AmgaNz4vwLU-42" target="RnnJeEHu4AmgaNz4vwLU-44">
          <mxGeometry relative="1" as="geometry" />
        </mxCell>
        <mxCell id="RnnJeEHu4AmgaNz4vwLU-42" value="API" style="rounded=1;whiteSpace=wrap;html=1;fillColor=#f8cecc;strokeColor=#b85450;" vertex="1" parent="1">
          <mxGeometry x="125" y="1070" width="120" height="60" as="geometry" />
        </mxCell>
        <mxCell id="RnnJeEHu4AmgaNz4vwLU-43" style="edgeStyle=orthogonalEdgeStyle;rounded=0;orthogonalLoop=1;jettySize=auto;html=1;entryX=0;entryY=0.5;entryDx=0;entryDy=0;" edge="1" parent="1" source="RnnJeEHu4AmgaNz4vwLU-44" target="RnnJeEHu4AmgaNz4vwLU-47">
          <mxGeometry relative="1" as="geometry" />
        </mxCell>
        <mxCell id="RnnJeEHu4AmgaNz4vwLU-44" value="Bestellung an UNS" style="rounded=1;whiteSpace=wrap;html=1;" vertex="1" parent="1">
          <mxGeometry x="485" y="1070" width="120" height="60" as="geometry" />
        </mxCell>
        <mxCell id="RnnJeEHu4AmgaNz4vwLU-45" value="Lambda erstellt Bestellung" style="text;html=1;strokeColor=none;fillColor=none;align=center;verticalAlign=middle;whiteSpace=wrap;rounded=0;" vertex="1" parent="1">
          <mxGeometry x="315" y="1070" width="100" height="30" as="geometry" />
        </mxCell>
        <mxCell id="RnnJeEHu4AmgaNz4vwLU-46" style="edgeStyle=orthogonalEdgeStyle;rounded=0;orthogonalLoop=1;jettySize=auto;html=1;entryX=0;entryY=0.5;entryDx=0;entryDy=0;exitX=0.5;exitY=1;exitDx=0;exitDy=0;" edge="1" parent="1" source="RnnJeEHu4AmgaNz4vwLU-47" target="RnnJeEHu4AmgaNz4vwLU-56">
          <mxGeometry relative="1" as="geometry">
            <mxPoint x="885" y="1160" as="targetPoint" />
          </mxGeometry>
        </mxCell>
        <mxCell id="RnnJeEHu4AmgaNz4vwLU-47" value="DynamoDB ITEM" style="rounded=1;whiteSpace=wrap;html=1;" vertex="1" parent="1">
          <mxGeometry x="825" y="980" width="120" height="60" as="geometry" />
        </mxCell>
        <mxCell id="RnnJeEHu4AmgaNz4vwLU-48" value="Eintrag" style="text;html=1;strokeColor=none;fillColor=none;align=center;verticalAlign=middle;whiteSpace=wrap;rounded=0;" vertex="1" parent="1">
          <mxGeometry x="735" y="980" width="60" height="30" as="geometry" />
        </mxCell>
        <mxCell id="RnnJeEHu4AmgaNz4vwLU-49" value="DynamoDB" style="rounded=1;whiteSpace=wrap;html=1;verticalAlign=top;" vertex="1" parent="1">
          <mxGeometry x="1400" y="970" width="390" height="180" as="geometry" />
        </mxCell>
        <mxCell id="RnnJeEHu4AmgaNz4vwLU-50" value="Item" style="rounded=1;whiteSpace=wrap;html=1;verticalAlign=top;" vertex="1" parent="1">
          <mxGeometry x="1410" y="990" width="120" height="150" as="geometry" />
        </mxCell>
        <mxCell id="RnnJeEHu4AmgaNz4vwLU-51" value="Werte" style="rounded=1;whiteSpace=wrap;html=1;" vertex="1" parent="1">
          <mxGeometry x="1425" y="1020" width="90" height="110" as="geometry" />
        </mxCell>
        <mxCell id="RnnJeEHu4AmgaNz4vwLU-52" value="Werte werden exportiert" style="text;html=1;strokeColor=none;fillColor=none;align=center;verticalAlign=middle;whiteSpace=wrap;rounded=0;" vertex="1" parent="1">
          <mxGeometry x="815" y="1070" width="60" height="30" as="geometry" />
        </mxCell>
        <mxCell id="RnnJeEHu4AmgaNz4vwLU-53" value="Fahrer" style="rounded=1;whiteSpace=wrap;html=1;verticalAlign=top;fillColor=#f8cecc;strokeColor=#b85450;" vertex="1" parent="1">
          <mxGeometry x="1550" y="990" width="120" height="150" as="geometry" />
        </mxCell>
        <mxCell id="RnnJeEHu4AmgaNz4vwLU-54" value="Fahrer_ID&lt;br&gt;status&lt;br&gt;EMAIL&amp;nbsp;&lt;br&gt;&lt;font color=&quot;#4eff21&quot;&gt;TELNUMMER&lt;br&gt;Region, Zustellzentrum&lt;/font&gt;" style="rounded=1;whiteSpace=wrap;html=1;verticalAlign=top;fillColor=#f8cecc;strokeColor=#b85450;" vertex="1" parent="1">
          <mxGeometry x="1555" y="1020" width="110" height="110" as="geometry" />
        </mxCell>
        <mxCell id="RnnJeEHu4AmgaNz4vwLU-55" value="DynamoDB Fahrer" style="rounded=1;whiteSpace=wrap;html=1;" vertex="1" parent="1">
          <mxGeometry x="1115" y="980" width="120" height="60" as="geometry" />
        </mxCell>
        <mxCell id="RnnJeEHu4AmgaNz4vwLU-87" style="edgeStyle=orthogonalEdgeStyle;rounded=0;orthogonalLoop=1;jettySize=auto;html=1;entryX=0.5;entryY=1;entryDx=0;entryDy=0;" edge="1" parent="1" source="RnnJeEHu4AmgaNz4vwLU-56" target="RnnJeEHu4AmgaNz4vwLU-55">
          <mxGeometry relative="1" as="geometry" />
        </mxCell>
        <mxCell id="RnnJeEHu4AmgaNz4vwLU-56" value="SQS Warteschlange Fahrer" style="rounded=1;whiteSpace=wrap;html=1;" vertex="1" parent="1">
          <mxGeometry x="970" y="1140" width="120" height="60" as="geometry" />
        </mxCell>
        <mxCell id="RnnJeEHu4AmgaNz4vwLU-57" value="SQS" style="rounded=1;whiteSpace=wrap;html=1;" vertex="1" parent="1">
          <mxGeometry x="1450" y="1330" width="340" height="60" as="geometry" />
        </mxCell>
        <mxCell id="RnnJeEHu4AmgaNz4vwLU-63" style="edgeStyle=orthogonalEdgeStyle;rounded=0;orthogonalLoop=1;jettySize=auto;html=1;entryX=0;entryY=0.5;entryDx=0;entryDy=0;" edge="1" parent="1" source="RnnJeEHu4AmgaNz4vwLU-58" target="RnnJeEHu4AmgaNz4vwLU-62">
          <mxGeometry relative="1" as="geometry" />
        </mxCell>
        <mxCell id="RnnJeEHu4AmgaNz4vwLU-58" value="Anfrage 1" style="rounded=1;whiteSpace=wrap;html=1;" vertex="1" parent="1">
          <mxGeometry x="1450" y="1430" width="120" height="60" as="geometry" />
        </mxCell>
        <mxCell id="RnnJeEHu4AmgaNz4vwLU-59" value="Anfrage 2" style="rounded=1;whiteSpace=wrap;html=1;" vertex="1" parent="1">
          <mxGeometry x="1450" y="1530" width="120" height="60" as="geometry" />
        </mxCell>
        <mxCell id="RnnJeEHu4AmgaNz4vwLU-60" value="Anfrage 3" style="rounded=1;whiteSpace=wrap;html=1;" vertex="1" parent="1">
          <mxGeometry x="1450" y="1630" width="120" height="60" as="geometry" />
        </mxCell>
        <mxCell id="RnnJeEHu4AmgaNz4vwLU-61" value="Verarbeitung LAMBDA" style="rounded=1;whiteSpace=wrap;html=1;" vertex="1" parent="1">
          <mxGeometry x="1960" y="1330" width="360" height="60" as="geometry" />
        </mxCell>
        <mxCell id="RnnJeEHu4AmgaNz4vwLU-64" style="edgeStyle=orthogonalEdgeStyle;rounded=0;orthogonalLoop=1;jettySize=auto;html=1;entryX=1;entryY=0.5;entryDx=0;entryDy=0;" edge="1" parent="1" source="RnnJeEHu4AmgaNz4vwLU-62" target="RnnJeEHu4AmgaNz4vwLU-57">
          <mxGeometry relative="1" as="geometry" />
        </mxCell>
        <mxCell id="RnnJeEHu4AmgaNz4vwLU-62" value="Anfrage 1" style="rounded=1;whiteSpace=wrap;html=1;fillColor=#d5e8d4;strokeColor=#82b366;" vertex="1" parent="1">
          <mxGeometry x="1960" y="1430" width="120" height="60" as="geometry" />
        </mxCell>
        <mxCell id="RnnJeEHu4AmgaNz4vwLU-65" value="Aufgabe erledigt" style="text;html=1;strokeColor=none;fillColor=none;align=center;verticalAlign=middle;whiteSpace=wrap;rounded=0;" vertex="1" parent="1">
          <mxGeometry x="1830" y="1320" width="60" height="30" as="geometry" />
        </mxCell>
        <mxCell id="RnnJeEHu4AmgaNz4vwLU-66" value="SQS" style="rounded=1;whiteSpace=wrap;html=1;" vertex="1" parent="1">
          <mxGeometry x="1450" y="1790" width="340" height="60" as="geometry" />
        </mxCell>
        <mxCell id="RnnJeEHu4AmgaNz4vwLU-67" style="edgeStyle=orthogonalEdgeStyle;rounded=0;orthogonalLoop=1;jettySize=auto;html=1;entryX=0;entryY=0.5;entryDx=0;entryDy=0;" edge="1" parent="1" target="RnnJeEHu4AmgaNz4vwLU-73">
          <mxGeometry relative="1" as="geometry">
            <mxPoint x="1570" y="1920" as="sourcePoint" />
          </mxGeometry>
        </mxCell>
        <mxCell id="RnnJeEHu4AmgaNz4vwLU-69" value="Anfrage 2" style="rounded=1;whiteSpace=wrap;html=1;" vertex="1" parent="1">
          <mxGeometry x="1450" y="1990" width="120" height="60" as="geometry" />
        </mxCell>
        <mxCell id="RnnJeEHu4AmgaNz4vwLU-70" value="Anfrage 3" style="rounded=1;whiteSpace=wrap;html=1;" vertex="1" parent="1">
          <mxGeometry x="1450" y="2090" width="120" height="60" as="geometry" />
        </mxCell>
        <mxCell id="RnnJeEHu4AmgaNz4vwLU-71" value="Verarbeitung LAMBDA" style="rounded=1;whiteSpace=wrap;html=1;" vertex="1" parent="1">
          <mxGeometry x="1960" y="1790" width="360" height="60" as="geometry" />
        </mxCell>
        <mxCell id="RnnJeEHu4AmgaNz4vwLU-72" style="edgeStyle=orthogonalEdgeStyle;rounded=0;orthogonalLoop=1;jettySize=auto;html=1;entryX=1;entryY=0.5;entryDx=0;entryDy=0;" edge="1" parent="1" source="RnnJeEHu4AmgaNz4vwLU-73" target="RnnJeEHu4AmgaNz4vwLU-66">
          <mxGeometry relative="1" as="geometry" />
        </mxCell>
        <mxCell id="RnnJeEHu4AmgaNz4vwLU-73" value="Anfrage 1" style="rounded=1;whiteSpace=wrap;html=1;fillColor=#d5e8d4;strokeColor=#82b366;" vertex="1" parent="1">
          <mxGeometry x="1960" y="1890" width="120" height="60" as="geometry" />
        </mxCell>
        <mxCell id="RnnJeEHu4AmgaNz4vwLU-74" value="Aufgabe erledigt" style="text;html=1;strokeColor=none;fillColor=none;align=center;verticalAlign=middle;whiteSpace=wrap;rounded=0;" vertex="1" parent="1">
          <mxGeometry x="1830" y="1780" width="60" height="30" as="geometry" />
        </mxCell>
        <mxCell id="RnnJeEHu4AmgaNz4vwLU-75" value="SQS" style="rounded=1;whiteSpace=wrap;html=1;" vertex="1" parent="1">
          <mxGeometry x="1450" y="2210" width="340" height="60" as="geometry" />
        </mxCell>
        <mxCell id="RnnJeEHu4AmgaNz4vwLU-76" style="edgeStyle=orthogonalEdgeStyle;rounded=0;orthogonalLoop=1;jettySize=auto;html=1;entryX=0;entryY=0.5;entryDx=0;entryDy=0;" edge="1" parent="1" source="RnnJeEHu4AmgaNz4vwLU-77" target="RnnJeEHu4AmgaNz4vwLU-82">
          <mxGeometry relative="1" as="geometry" />
        </mxCell>
        <mxCell id="RnnJeEHu4AmgaNz4vwLU-77" value="Anfrage 1" style="rounded=1;whiteSpace=wrap;html=1;" vertex="1" parent="1">
          <mxGeometry x="1450" y="2310" width="120" height="60" as="geometry" />
        </mxCell>
        <mxCell id="RnnJeEHu4AmgaNz4vwLU-78" value="Anfrage 2" style="rounded=1;whiteSpace=wrap;html=1;" vertex="1" parent="1">
          <mxGeometry x="1450" y="2410" width="120" height="60" as="geometry" />
        </mxCell>
        <mxCell id="RnnJeEHu4AmgaNz4vwLU-79" value="Anfrage 3" style="rounded=1;whiteSpace=wrap;html=1;" vertex="1" parent="1">
          <mxGeometry x="1450" y="2510" width="120" height="60" as="geometry" />
        </mxCell>
        <mxCell id="RnnJeEHu4AmgaNz4vwLU-80" value="Verarbeitung LAMBDA" style="rounded=1;whiteSpace=wrap;html=1;" vertex="1" parent="1">
          <mxGeometry x="1960" y="2210" width="360" height="60" as="geometry" />
        </mxCell>
        <mxCell id="RnnJeEHu4AmgaNz4vwLU-81" style="edgeStyle=orthogonalEdgeStyle;rounded=0;orthogonalLoop=1;jettySize=auto;html=1;entryX=1;entryY=0.5;entryDx=0;entryDy=0;" edge="1" parent="1" source="RnnJeEHu4AmgaNz4vwLU-82" target="RnnJeEHu4AmgaNz4vwLU-75">
          <mxGeometry relative="1" as="geometry" />
        </mxCell>
        <mxCell id="RnnJeEHu4AmgaNz4vwLU-82" value="Anfrage 1" style="rounded=1;whiteSpace=wrap;html=1;fillColor=#f8cecc;strokeColor=#b85450;" vertex="1" parent="1">
          <mxGeometry x="1960" y="2310" width="120" height="60" as="geometry" />
        </mxCell>
        <mxCell id="RnnJeEHu4AmgaNz4vwLU-83" value="Aufgabe nicht fertig" style="text;html=1;strokeColor=none;fillColor=none;align=center;verticalAlign=middle;whiteSpace=wrap;rounded=0;" vertex="1" parent="1">
          <mxGeometry x="1830" y="2200" width="60" height="30" as="geometry" />
        </mxCell>
        <mxCell id="RnnJeEHu4AmgaNz4vwLU-84" value="" style="shape=flexArrow;endArrow=classic;html=1;rounded=0;" edge="1" parent="1">
          <mxGeometry width="50" height="50" relative="1" as="geometry">
            <mxPoint x="1370" y="2290" as="sourcePoint" />
            <mxPoint x="1370" y="2570" as="targetPoint" />
          </mxGeometry>
        </mxCell>
        <mxCell id="RnnJeEHu4AmgaNz4vwLU-85" value="FIFO" style="text;html=1;strokeColor=none;fillColor=none;align=center;verticalAlign=middle;whiteSpace=wrap;rounded=0;" vertex="1" parent="1">
          <mxGeometry x="1380" y="2220" width="60" height="30" as="geometry" />
        </mxCell>
        <mxCell id="RnnJeEHu4AmgaNz4vwLU-86" value="DLQ" style="text;html=1;strokeColor=none;fillColor=none;align=center;verticalAlign=middle;whiteSpace=wrap;rounded=0;" vertex="1" parent="1">
          <mxGeometry x="1380" y="2250" width="60" height="30" as="geometry" />
        </mxCell>
        <mxCell id="RnnJeEHu4AmgaNz4vwLU-88" value="&lt;span style=&quot;color: rgb(60, 64, 67); font-family: Roboto, Arial, sans-serif; font-size: 14px; font-style: normal; font-variant-ligatures: normal; font-variant-caps: normal; font-weight: 400; letter-spacing: 0.2px; orphans: 2; text-align: start; text-indent: 0px; text-transform: none; widows: 2; word-spacing: 0px; -webkit-text-stroke-width: 0px; text-decoration-thickness: initial; text-decoration-style: initial; text-decoration-color: initial; float: none; display: inline !important;&quot;&gt;2 Fahrerzuweisung&lt;/span&gt;&lt;ul style=&quot;-webkit-tap-highlight-color: transparent; list-style: disc; margin: 1em 0px; padding: 0px 0px 0px 40px; color: rgb(60, 64, 67); font-family: Roboto, Arial, sans-serif; font-size: 14px; font-style: normal; font-variant-ligatures: normal; font-variant-caps: normal; font-weight: 400; letter-spacing: 0.2px; orphans: 2; text-align: start; text-indent: 0px; text-transform: none; widows: 2; word-spacing: 0px; -webkit-text-stroke-width: 0px; text-decoration-thickness: initial; text-decoration-style: initial; text-decoration-color: initial;&quot;&gt;&lt;li style=&quot;-webkit-tap-highlight-color: transparent;&quot;&gt;&amp;nbsp;Automatische Zuweisung eines Fahrers nach Bestellungserstellung.&lt;/li&gt;&lt;li style=&quot;-webkit-tap-highlight-color: transparent;&quot;&gt;Nachricht wird an eine Warteschlange für Fahrerzuweisung gesendet.&lt;/li&gt;&lt;li style=&quot;-webkit-tap-highlight-color: transparent;&quot;&gt;Keine Bestellung geht verloren, unabhängig von Systemlast.&lt;/li&gt;&lt;/ul&gt;" style="text;whiteSpace=wrap;html=1;" vertex="1" parent="1">
          <mxGeometry x="240" y="2430" width="520" height="120" as="geometry" />
        </mxCell>
        <mxCell id="RnnJeEHu4AmgaNz4vwLU-89" value="&lt;span style=&quot;color: rgb(60, 64, 67); font-family: Roboto, Arial, sans-serif; font-size: 14px; font-style: normal; font-variant-ligatures: normal; font-variant-caps: normal; font-weight: 400; letter-spacing: 0.2px; orphans: 2; text-align: start; text-indent: 0px; text-transform: none; widows: 2; word-spacing: 0px; -webkit-text-stroke-width: 0px; text-decoration-thickness: initial; text-decoration-style: initial; text-decoration-color: initial; float: none; display: inline !important;&quot;&gt;3 Benachrichtigung des Fahrers&lt;/span&gt;&lt;ul style=&quot;-webkit-tap-highlight-color: transparent; list-style: disc; margin: 1em 0px; padding: 0px 0px 0px 40px; color: rgb(60, 64, 67); font-family: Roboto, Arial, sans-serif; font-size: 14px; font-style: normal; font-variant-ligatures: normal; font-variant-caps: normal; font-weight: 400; letter-spacing: 0.2px; orphans: 2; text-align: start; text-indent: 0px; text-transform: none; widows: 2; word-spacing: 0px; -webkit-text-stroke-width: 0px; text-decoration-thickness: initial; text-decoration-style: initial; text-decoration-color: initial;&quot;&gt;&lt;li style=&quot;-webkit-tap-highlight-color: transparent;&quot;&gt;Benachrichtigung des zugewiesenen Fahrers über eine neue Bestellung.&lt;/li&gt;&lt;li style=&quot;-webkit-tap-highlight-color: transparent;&quot;&gt;Eine Funktion ruft die Warteschlange für neue Bestellungen ab.&lt;/li&gt;&lt;li style=&quot;-webkit-tap-highlight-color: transparent;&quot;&gt;Bei Zuweisung wird der Fahrer benachrichtigt.&lt;/li&gt;&lt;/ul&gt;" style="text;whiteSpace=wrap;html=1;" vertex="1" parent="1">
          <mxGeometry x="240" y="2540" width="560" height="120" as="geometry" />
        </mxCell>
        <mxCell id="RnnJeEHu4AmgaNz4vwLU-90" style="edgeStyle=orthogonalEdgeStyle;rounded=0;orthogonalLoop=1;jettySize=auto;html=1;entryX=0;entryY=0.5;entryDx=0;entryDy=0;" edge="1" parent="1" source="RnnJeEHu4AmgaNz4vwLU-91" target="RnnJeEHu4AmgaNz4vwLU-93">
          <mxGeometry relative="1" as="geometry" />
        </mxCell>
        <mxCell id="RnnJeEHu4AmgaNz4vwLU-91" value="API" style="rounded=1;whiteSpace=wrap;html=1;fillColor=#f8cecc;strokeColor=#b85450;" vertex="1" parent="1">
          <mxGeometry x="-85" y="2810" width="120" height="60" as="geometry" />
        </mxCell>
        <mxCell id="RnnJeEHu4AmgaNz4vwLU-92" style="edgeStyle=orthogonalEdgeStyle;rounded=0;orthogonalLoop=1;jettySize=auto;html=1;entryX=0;entryY=0.5;entryDx=0;entryDy=0;" edge="1" parent="1" source="RnnJeEHu4AmgaNz4vwLU-93" target="RnnJeEHu4AmgaNz4vwLU-96">
          <mxGeometry relative="1" as="geometry" />
        </mxCell>
        <mxCell id="RnnJeEHu4AmgaNz4vwLU-93" value="Bestellung an UNS" style="rounded=1;whiteSpace=wrap;html=1;" vertex="1" parent="1">
          <mxGeometry x="275" y="2810" width="120" height="60" as="geometry" />
        </mxCell>
        <mxCell id="RnnJeEHu4AmgaNz4vwLU-94" value="Lambda erstellt Bestellung" style="text;html=1;strokeColor=none;fillColor=none;align=center;verticalAlign=middle;whiteSpace=wrap;rounded=0;" vertex="1" parent="1">
          <mxGeometry x="105" y="2810" width="100" height="30" as="geometry" />
        </mxCell>
        <mxCell id="RnnJeEHu4AmgaNz4vwLU-95" style="edgeStyle=orthogonalEdgeStyle;rounded=0;orthogonalLoop=1;jettySize=auto;html=1;entryX=0;entryY=0.5;entryDx=0;entryDy=0;exitX=0.5;exitY=1;exitDx=0;exitDy=0;" edge="1" parent="1" source="RnnJeEHu4AmgaNz4vwLU-96" target="RnnJeEHu4AmgaNz4vwLU-101">
          <mxGeometry relative="1" as="geometry">
            <mxPoint x="675" y="2900" as="targetPoint" />
          </mxGeometry>
        </mxCell>
        <mxCell id="RnnJeEHu4AmgaNz4vwLU-96" value="DynamoDB ITEM" style="rounded=1;whiteSpace=wrap;html=1;" vertex="1" parent="1">
          <mxGeometry x="615" y="2720" width="120" height="60" as="geometry" />
        </mxCell>
        <mxCell id="RnnJeEHu4AmgaNz4vwLU-97" value="Eintrag" style="text;html=1;strokeColor=none;fillColor=none;align=center;verticalAlign=middle;whiteSpace=wrap;rounded=0;" vertex="1" parent="1">
          <mxGeometry x="525" y="2720" width="60" height="30" as="geometry" />
        </mxCell>
        <mxCell id="RnnJeEHu4AmgaNz4vwLU-98" value="Werte werden exportiert" style="text;html=1;strokeColor=none;fillColor=none;align=center;verticalAlign=middle;whiteSpace=wrap;rounded=0;" vertex="1" parent="1">
          <mxGeometry x="605" y="2810" width="60" height="30" as="geometry" />
        </mxCell>
        <mxCell id="RnnJeEHu4AmgaNz4vwLU-104" style="edgeStyle=orthogonalEdgeStyle;rounded=0;orthogonalLoop=1;jettySize=auto;html=1;" edge="1" parent="1" source="RnnJeEHu4AmgaNz4vwLU-99" target="RnnJeEHu4AmgaNz4vwLU-102">
          <mxGeometry relative="1" as="geometry" />
        </mxCell>
        <mxCell id="RnnJeEHu4AmgaNz4vwLU-99" value="DynamoDB Fahrer" style="rounded=1;whiteSpace=wrap;html=1;" vertex="1" parent="1">
          <mxGeometry x="905" y="2720" width="120" height="60" as="geometry" />
        </mxCell>
        <mxCell id="RnnJeEHu4AmgaNz4vwLU-100" style="edgeStyle=orthogonalEdgeStyle;rounded=0;orthogonalLoop=1;jettySize=auto;html=1;entryX=0.5;entryY=1;entryDx=0;entryDy=0;" edge="1" parent="1" source="RnnJeEHu4AmgaNz4vwLU-101" target="RnnJeEHu4AmgaNz4vwLU-99">
          <mxGeometry relative="1" as="geometry" />
        </mxCell>
        <mxCell id="RnnJeEHu4AmgaNz4vwLU-103" style="edgeStyle=orthogonalEdgeStyle;rounded=0;orthogonalLoop=1;jettySize=auto;html=1;entryX=0;entryY=0.5;entryDx=0;entryDy=0;fillColor=#f8cecc;strokeColor=#b85450;exitX=1;exitY=0.75;exitDx=0;exitDy=0;" edge="1" parent="1" source="RnnJeEHu4AmgaNz4vwLU-101" target="RnnJeEHu4AmgaNz4vwLU-102">
          <mxGeometry relative="1" as="geometry" />
        </mxCell>
        <mxCell id="RnnJeEHu4AmgaNz4vwLU-101" value="SQS Warteschlange Fahrer / Neue Items" style="rounded=1;whiteSpace=wrap;html=1;" vertex="1" parent="1">
          <mxGeometry x="760" y="2880" width="120" height="60" as="geometry" />
        </mxCell>
        <mxCell id="RnnJeEHu4AmgaNz4vwLU-102" value="SNS NAchricht an Fahrer" style="rounded=1;whiteSpace=wrap;html=1;" vertex="1" parent="1">
          <mxGeometry x="1215" y="2890" width="120" height="60" as="geometry" />
        </mxCell>
        <mxCell id="RnnJeEHu4AmgaNz4vwLU-105" value="" style="endArrow=classic;html=1;rounded=0;entryX=0.25;entryY=0;entryDx=0;entryDy=0;" edge="1" parent="1" target="RnnJeEHu4AmgaNz4vwLU-102">
          <mxGeometry width="50" height="50" relative="1" as="geometry">
            <mxPoint x="1220" y="2660" as="sourcePoint" />
            <mxPoint x="1270" y="2610" as="targetPoint" />
          </mxGeometry>
        </mxCell>
        <mxCell id="RnnJeEHu4AmgaNz4vwLU-110" style="edgeStyle=orthogonalEdgeStyle;rounded=0;orthogonalLoop=1;jettySize=auto;html=1;entryX=0;entryY=0.5;entryDx=0;entryDy=0;" edge="1" parent="1" source="RnnJeEHu4AmgaNz4vwLU-106" target="RnnJeEHu4AmgaNz4vwLU-107">
          <mxGeometry relative="1" as="geometry" />
        </mxCell>
        <mxCell id="RnnJeEHu4AmgaNz4vwLU-106" value="SQS" style="rounded=1;whiteSpace=wrap;html=1;" vertex="1" parent="1">
          <mxGeometry x="1630" y="2770" width="120" height="60" as="geometry" />
        </mxCell>
        <mxCell id="RnnJeEHu4AmgaNz4vwLU-112" style="edgeStyle=orthogonalEdgeStyle;rounded=0;orthogonalLoop=1;jettySize=auto;html=1;entryX=0;entryY=0.5;entryDx=0;entryDy=0;" edge="1" parent="1" source="RnnJeEHu4AmgaNz4vwLU-107" target="RnnJeEHu4AmgaNz4vwLU-111">
          <mxGeometry relative="1" as="geometry" />
        </mxCell>
        <mxCell id="RnnJeEHu4AmgaNz4vwLU-107" value="LAMBDA" style="rounded=1;whiteSpace=wrap;html=1;" vertex="1" parent="1">
          <mxGeometry x="1920" y="2770" width="120" height="60" as="geometry" />
        </mxCell>
        <mxCell id="RnnJeEHu4AmgaNz4vwLU-113" style="edgeStyle=orthogonalEdgeStyle;rounded=0;orthogonalLoop=1;jettySize=auto;html=1;entryX=0;entryY=0.5;entryDx=0;entryDy=0;" edge="1" parent="1" source="RnnJeEHu4AmgaNz4vwLU-108" target="RnnJeEHu4AmgaNz4vwLU-109">
          <mxGeometry relative="1" as="geometry" />
        </mxCell>
        <mxCell id="RnnJeEHu4AmgaNz4vwLU-108" value="SQS" style="rounded=1;whiteSpace=wrap;html=1;" vertex="1" parent="1">
          <mxGeometry x="1640" y="2910" width="120" height="60" as="geometry" />
        </mxCell>
        <mxCell id="RnnJeEHu4AmgaNz4vwLU-115" style="edgeStyle=orthogonalEdgeStyle;rounded=0;orthogonalLoop=1;jettySize=auto;html=1;entryX=0;entryY=0.5;entryDx=0;entryDy=0;" edge="1" parent="1" source="RnnJeEHu4AmgaNz4vwLU-109" target="RnnJeEHu4AmgaNz4vwLU-114">
          <mxGeometry relative="1" as="geometry" />
        </mxCell>
        <mxCell id="RnnJeEHu4AmgaNz4vwLU-109" value="LAMBDA" style="rounded=1;whiteSpace=wrap;html=1;" vertex="1" parent="1">
          <mxGeometry x="1930" y="2910" width="120" height="60" as="geometry" />
        </mxCell>
        <mxCell id="RnnJeEHu4AmgaNz4vwLU-111" value="Aufgabe fertig" style="rounded=1;whiteSpace=wrap;html=1;" vertex="1" parent="1">
          <mxGeometry x="2150" y="2770" width="120" height="60" as="geometry" />
        </mxCell>
        <mxCell id="RnnJeEHu4AmgaNz4vwLU-114" value="Aufgabe nicht fertig" style="rounded=1;whiteSpace=wrap;html=1;" vertex="1" parent="1">
          <mxGeometry x="2150" y="2910" width="120" height="60" as="geometry" />
        </mxCell>
        <mxCell id="RnnJeEHu4AmgaNz4vwLU-151" style="edgeStyle=orthogonalEdgeStyle;rounded=0;orthogonalLoop=1;jettySize=auto;html=1;entryX=0;entryY=0.5;entryDx=0;entryDy=0;" edge="1" parent="1" source="RnnJeEHu4AmgaNz4vwLU-116" target="RnnJeEHu4AmgaNz4vwLU-150">
          <mxGeometry relative="1" as="geometry" />
        </mxCell>
        <mxCell id="RnnJeEHu4AmgaNz4vwLU-116" value="SQS Warteschlange Fahrer / Neue Items" style="rounded=1;whiteSpace=wrap;html=1;" vertex="1" parent="1">
          <mxGeometry x="365" y="3270" width="120" height="60" as="geometry" />
        </mxCell>
        <mxCell id="RnnJeEHu4AmgaNz4vwLU-162" style="edgeStyle=orthogonalEdgeStyle;rounded=0;orthogonalLoop=1;jettySize=auto;html=1;entryX=0;entryY=0.5;entryDx=0;entryDy=0;" edge="1" parent="1" source="RnnJeEHu4AmgaNz4vwLU-117" target="RnnJeEHu4AmgaNz4vwLU-149">
          <mxGeometry relative="1" as="geometry" />
        </mxCell>
        <mxCell id="RnnJeEHu4AmgaNz4vwLU-117" value="DynamoDB Fahrer&lt;br&gt;mit MUSTERDATEN" style="rounded=1;whiteSpace=wrap;html=1;" vertex="1" parent="1">
          <mxGeometry x="820" y="3270" width="120" height="60" as="geometry" />
        </mxCell>
        <mxCell id="RnnJeEHu4AmgaNz4vwLU-119" value="Dynamobd" style="rounded=1;whiteSpace=wrap;html=1;verticalAlign=top;" vertex="1" parent="1">
          <mxGeometry x="1640" y="3030" width="430" height="200" as="geometry" />
        </mxCell>
        <mxCell id="RnnJeEHu4AmgaNz4vwLU-120" value="Fahrer verfügbar" style="rounded=1;whiteSpace=wrap;html=1;" vertex="1" parent="1">
          <mxGeometry x="1650" y="3070" width="120" height="140" as="geometry" />
        </mxCell>
        <mxCell id="RnnJeEHu4AmgaNz4vwLU-121" value="Fahrergesamt" style="rounded=1;whiteSpace=wrap;html=1;" vertex="1" parent="1">
          <mxGeometry x="1930" y="3070" width="120" height="140" as="geometry" />
        </mxCell>
        <mxCell id="RnnJeEHu4AmgaNz4vwLU-122" value="Fahrer nicht verfügbar" style="rounded=1;whiteSpace=wrap;html=1;" vertex="1" parent="1">
          <mxGeometry x="1790" y="3070" width="120" height="140" as="geometry" />
        </mxCell>
        <mxCell id="RnnJeEHu4AmgaNz4vwLU-123" value="Dynamobd" style="rounded=1;whiteSpace=wrap;html=1;verticalAlign=top;" vertex="1" parent="1">
          <mxGeometry x="2060" y="3330" width="430" height="200" as="geometry" />
        </mxCell>
        <mxCell id="RnnJeEHu4AmgaNz4vwLU-124" value="Fahrer verfügbar" style="rounded=1;whiteSpace=wrap;html=1;" vertex="1" parent="1">
          <mxGeometry x="2070" y="3370" width="120" height="140" as="geometry" />
        </mxCell>
        <mxCell id="RnnJeEHu4AmgaNz4vwLU-125" value="Fahrergesamt" style="rounded=1;whiteSpace=wrap;html=1;" vertex="1" parent="1">
          <mxGeometry x="2350" y="3370" width="120" height="140" as="geometry" />
        </mxCell>
        <mxCell id="RnnJeEHu4AmgaNz4vwLU-126" value="Fahrer nicht verfügbar" style="rounded=1;whiteSpace=wrap;html=1;" vertex="1" parent="1">
          <mxGeometry x="2210" y="3370" width="120" height="140" as="geometry" />
        </mxCell>
        <mxCell id="RnnJeEHu4AmgaNz4vwLU-127" value="DynamoDB" style="rounded=1;whiteSpace=wrap;html=1;verticalAlign=top;" vertex="1" parent="1">
          <mxGeometry x="1760" y="3340" width="210" height="200" as="geometry" />
        </mxCell>
        <mxCell id="RnnJeEHu4AmgaNz4vwLU-128" value="Fahrer" style="rounded=1;whiteSpace=wrap;html=1;verticalAlign=top;" vertex="1" parent="1">
          <mxGeometry x="1765" y="3380" width="200" height="130" as="geometry" />
        </mxCell>
        <mxCell id="RnnJeEHu4AmgaNz4vwLU-129" value="status" style="rounded=1;whiteSpace=wrap;html=1;" vertex="1" parent="1">
          <mxGeometry x="1790" y="3415" width="120" height="60" as="geometry" />
        </mxCell>
        <mxCell id="RnnJeEHu4AmgaNz4vwLU-130" value="Fahrer Table durch bist wir Fahrer mit status frei finden" style="text;html=1;strokeColor=none;fillColor=none;align=center;verticalAlign=middle;whiteSpace=wrap;rounded=0;" vertex="1" parent="1">
          <mxGeometry x="1760" y="3580" width="200" height="30" as="geometry" />
        </mxCell>
        <mxCell id="RnnJeEHu4AmgaNz4vwLU-131" value="20 Fahrer max -&amp;gt; 20 Reads" style="rounded=1;whiteSpace=wrap;html=1;" vertex="1" parent="1">
          <mxGeometry x="1780" y="3640" width="190" height="60" as="geometry" />
        </mxCell>
        <mxCell id="RnnJeEHu4AmgaNz4vwLU-140" style="edgeStyle=orthogonalEdgeStyle;rounded=0;orthogonalLoop=1;jettySize=auto;html=1;entryX=0;entryY=0.5;entryDx=0;entryDy=0;exitX=0.5;exitY=1;exitDx=0;exitDy=0;fillColor=#d5e8d4;strokeColor=#82b366;" edge="1" parent="1" source="RnnJeEHu4AmgaNz4vwLU-133" target="RnnJeEHu4AmgaNz4vwLU-135">
          <mxGeometry relative="1" as="geometry" />
        </mxCell>
        <mxCell id="RnnJeEHu4AmgaNz4vwLU-133" value="Fahrer verfügbar" style="rounded=1;whiteSpace=wrap;html=1;" vertex="1" parent="1">
          <mxGeometry x="2555" y="3600" width="120" height="140" as="geometry" />
        </mxCell>
        <mxCell id="RnnJeEHu4AmgaNz4vwLU-147" style="edgeStyle=orthogonalEdgeStyle;rounded=0;orthogonalLoop=1;jettySize=auto;html=1;entryX=1;entryY=0.5;entryDx=0;entryDy=0;exitX=0.5;exitY=0;exitDx=0;exitDy=0;" edge="1" parent="1" source="RnnJeEHu4AmgaNz4vwLU-134" target="RnnJeEHu4AmgaNz4vwLU-133">
          <mxGeometry relative="1" as="geometry" />
        </mxCell>
        <mxCell id="RnnJeEHu4AmgaNz4vwLU-134" value="Fahrergesamt" style="rounded=1;whiteSpace=wrap;html=1;" vertex="1" parent="1">
          <mxGeometry x="2840" y="3880" width="120" height="140" as="geometry" />
        </mxCell>
        <mxCell id="RnnJeEHu4AmgaNz4vwLU-135" value="Fahrer nicht verfügbar" style="rounded=1;whiteSpace=wrap;html=1;" vertex="1" parent="1">
          <mxGeometry x="2700" y="3740" width="120" height="140" as="geometry" />
        </mxCell>
        <mxCell id="RnnJeEHu4AmgaNz4vwLU-136" value="" style="endArrow=classic;html=1;rounded=0;entryX=0;entryY=0.5;entryDx=0;entryDy=0;" edge="1" parent="1" target="RnnJeEHu4AmgaNz4vwLU-133">
          <mxGeometry width="50" height="50" relative="1" as="geometry">
            <mxPoint x="2260" y="3670" as="sourcePoint" />
            <mxPoint x="2310" y="3620" as="targetPoint" />
          </mxGeometry>
        </mxCell>
        <mxCell id="RnnJeEHu4AmgaNz4vwLU-137" value="WF 1" style="text;html=1;strokeColor=#82b366;fillColor=#d5e8d4;align=center;verticalAlign=middle;whiteSpace=wrap;rounded=0;" vertex="1" parent="1">
          <mxGeometry x="2300" y="3630" width="60" height="30" as="geometry" />
        </mxCell>
        <mxCell id="RnnJeEHu4AmgaNz4vwLU-138" value="" style="endArrow=classic;html=1;rounded=0;fillColor=#d5e8d4;strokeColor=#82b366;" edge="1" parent="1">
          <mxGeometry width="50" height="50" relative="1" as="geometry">
            <mxPoint x="2680" y="3670" as="sourcePoint" />
            <mxPoint x="2840" y="3530" as="targetPoint" />
          </mxGeometry>
        </mxCell>
        <mxCell id="RnnJeEHu4AmgaNz4vwLU-139" value="WF 1 Fahrer gefunden" style="text;html=1;strokeColor=#82b366;fillColor=#d5e8d4;align=center;verticalAlign=middle;whiteSpace=wrap;rounded=0;" vertex="1" parent="1">
          <mxGeometry x="2710" y="3520" width="60" height="60" as="geometry" />
        </mxCell>
        <mxCell id="RnnJeEHu4AmgaNz4vwLU-141" value="WF 1" style="text;html=1;strokeColor=#82b366;fillColor=#d5e8d4;align=center;verticalAlign=middle;whiteSpace=wrap;rounded=0;" vertex="1" parent="1">
          <mxGeometry x="2630" y="3770" width="60" height="30" as="geometry" />
        </mxCell>
        <mxCell id="RnnJeEHu4AmgaNz4vwLU-143" value="COPY Fahrer ID Element ind&amp;nbsp; Table Fahren nicht verfügbar" style="text;html=1;strokeColor=#82b366;fillColor=#d5e8d4;align=center;verticalAlign=middle;whiteSpace=wrap;rounded=0;" vertex="1" parent="1">
          <mxGeometry x="2380" y="3710" width="170" height="30" as="geometry" />
        </mxCell>
        <mxCell id="RnnJeEHu4AmgaNz4vwLU-144" value="Delete Fahrer ID aus Fahrer verfügbar" style="text;html=1;strokeColor=#82b366;fillColor=#d5e8d4;align=center;verticalAlign=middle;whiteSpace=wrap;rounded=0;" vertex="1" parent="1">
          <mxGeometry x="2380" y="3750" width="170" height="30" as="geometry" />
        </mxCell>
        <mxCell id="RnnJeEHu4AmgaNz4vwLU-145" value="WF1" style="text;html=1;strokeColor=#82b366;fillColor=#d5e8d4;align=center;verticalAlign=middle;whiteSpace=wrap;rounded=0;" vertex="1" parent="1">
          <mxGeometry x="2400" y="3680" width="60" height="30" as="geometry" />
        </mxCell>
        <mxCell id="RnnJeEHu4AmgaNz4vwLU-148" value="WF0" style="text;html=1;strokeColor=none;fillColor=none;align=center;verticalAlign=middle;whiteSpace=wrap;rounded=0;" vertex="1" parent="1">
          <mxGeometry x="2810" y="3640" width="60" height="30" as="geometry" />
        </mxCell>
        <mxCell id="RnnJeEHu4AmgaNz4vwLU-149" value="SNS" style="rounded=1;whiteSpace=wrap;html=1;" vertex="1" parent="1">
          <mxGeometry x="1145" y="3270" width="120" height="60" as="geometry" />
        </mxCell>
        <mxCell id="RnnJeEHu4AmgaNz4vwLU-152" style="edgeStyle=orthogonalEdgeStyle;rounded=0;orthogonalLoop=1;jettySize=auto;html=1;entryX=0;entryY=0.5;entryDx=0;entryDy=0;" edge="1" parent="1" source="RnnJeEHu4AmgaNz4vwLU-150" target="RnnJeEHu4AmgaNz4vwLU-117">
          <mxGeometry relative="1" as="geometry" />
        </mxCell>
        <mxCell id="RnnJeEHu4AmgaNz4vwLU-164" style="edgeStyle=orthogonalEdgeStyle;rounded=0;orthogonalLoop=1;jettySize=auto;html=1;entryX=0.5;entryY=0;entryDx=0;entryDy=0;exitX=0.5;exitY=0;exitDx=0;exitDy=0;" edge="1" parent="1" source="RnnJeEHu4AmgaNz4vwLU-150" target="RnnJeEHu4AmgaNz4vwLU-117">
          <mxGeometry relative="1" as="geometry" />
        </mxCell>
        <mxCell id="RnnJeEHu4AmgaNz4vwLU-167" style="edgeStyle=orthogonalEdgeStyle;rounded=0;orthogonalLoop=1;jettySize=auto;html=1;entryX=0.5;entryY=1;entryDx=0;entryDy=0;exitX=0.5;exitY=1;exitDx=0;exitDy=0;" edge="1" parent="1" source="RnnJeEHu4AmgaNz4vwLU-150" target="RnnJeEHu4AmgaNz4vwLU-117">
          <mxGeometry relative="1" as="geometry" />
        </mxCell>
        <mxCell id="RnnJeEHu4AmgaNz4vwLU-170" style="edgeStyle=orthogonalEdgeStyle;rounded=0;orthogonalLoop=1;jettySize=auto;html=1;entryX=0.5;entryY=0;entryDx=0;entryDy=0;exitX=0.25;exitY=0;exitDx=0;exitDy=0;" edge="1" parent="1" source="RnnJeEHu4AmgaNz4vwLU-150" target="RnnJeEHu4AmgaNz4vwLU-117">
          <mxGeometry relative="1" as="geometry">
            <Array as="points">
              <mxPoint x="600" y="3140" />
              <mxPoint x="880" y="3140" />
            </Array>
          </mxGeometry>
        </mxCell>
        <mxCell id="RnnJeEHu4AmgaNz4vwLU-174" style="edgeStyle=orthogonalEdgeStyle;rounded=0;orthogonalLoop=1;jettySize=auto;html=1;entryX=0.5;entryY=1;entryDx=0;entryDy=0;exitX=0.25;exitY=1;exitDx=0;exitDy=0;" edge="1" parent="1" source="RnnJeEHu4AmgaNz4vwLU-150" target="RnnJeEHu4AmgaNz4vwLU-149">
          <mxGeometry relative="1" as="geometry">
            <Array as="points">
              <mxPoint x="600" y="3430" />
              <mxPoint x="1205" y="3430" />
            </Array>
          </mxGeometry>
        </mxCell>
        <mxCell id="RnnJeEHu4AmgaNz4vwLU-150" value="LAMBDA -&amp;gt; Anfrage an SQS, Fahrer suche&lt;br&gt;Dynamodb anpassung" style="rounded=1;whiteSpace=wrap;html=1;" vertex="1" parent="1">
          <mxGeometry x="570" y="3245" width="120" height="110" as="geometry" />
        </mxCell>
        <mxCell id="RnnJeEHu4AmgaNz4vwLU-153" value="Anfrage gibt es neues ITem in Queue" style="rounded=1;whiteSpace=wrap;html=1;" vertex="1" parent="1">
          <mxGeometry x="570" y="3450" width="120" height="60" as="geometry" />
        </mxCell>
        <mxCell id="RnnJeEHu4AmgaNz4vwLU-160" style="edgeStyle=orthogonalEdgeStyle;rounded=0;orthogonalLoop=1;jettySize=auto;html=1;" edge="1" parent="1" source="RnnJeEHu4AmgaNz4vwLU-154" target="RnnJeEHu4AmgaNz4vwLU-155">
          <mxGeometry relative="1" as="geometry" />
        </mxCell>
        <mxCell id="RnnJeEHu4AmgaNz4vwLU-161" style="edgeStyle=orthogonalEdgeStyle;rounded=0;orthogonalLoop=1;jettySize=auto;html=1;entryX=0.5;entryY=0;entryDx=0;entryDy=0;" edge="1" parent="1" source="RnnJeEHu4AmgaNz4vwLU-154" target="RnnJeEHu4AmgaNz4vwLU-157">
          <mxGeometry relative="1" as="geometry" />
        </mxCell>
        <mxCell id="RnnJeEHu4AmgaNz4vwLU-154" value="DynamoDB Fahrersuche&lt;br&gt;ersten eintrag mit status verfügbar" style="rounded=1;whiteSpace=wrap;html=1;" vertex="1" parent="1">
          <mxGeometry x="567.5" y="3600" width="120" height="60" as="geometry" />
        </mxCell>
        <mxCell id="RnnJeEHu4AmgaNz4vwLU-172" style="edgeStyle=orthogonalEdgeStyle;rounded=0;orthogonalLoop=1;jettySize=auto;html=1;entryX=0.5;entryY=0;entryDx=0;entryDy=0;" edge="1" parent="1" source="RnnJeEHu4AmgaNz4vwLU-155" target="RnnJeEHu4AmgaNz4vwLU-156">
          <mxGeometry relative="1" as="geometry" />
        </mxCell>
        <mxCell id="RnnJeEHu4AmgaNz4vwLU-155" value="Fahrer status anpassen" style="rounded=1;whiteSpace=wrap;html=1;" vertex="1" parent="1">
          <mxGeometry x="567.5" y="3685" width="120" height="60" as="geometry" />
        </mxCell>
        <mxCell id="RnnJeEHu4AmgaNz4vwLU-156" value="Fahrer Liefungswert anpassen" style="rounded=1;whiteSpace=wrap;html=1;" vertex="1" parent="1">
          <mxGeometry x="567.5" y="3790" width="120" height="60" as="geometry" />
        </mxCell>
        <mxCell id="RnnJeEHu4AmgaNz4vwLU-157" value="SNS -&amp;gt; Email an Fahrer XY" style="rounded=1;whiteSpace=wrap;html=1;" vertex="1" parent="1">
          <mxGeometry x="792.5" y="3690" width="120" height="60" as="geometry" />
        </mxCell>
        <mxCell id="RnnJeEHu4AmgaNz4vwLU-163" value="ITEM" style="rounded=1;whiteSpace=wrap;html=1;" vertex="1" parent="1">
          <mxGeometry x="665" y="3000" width="120" height="60" as="geometry" />
        </mxCell>
        <mxCell id="RnnJeEHu4AmgaNz4vwLU-165" value="Anfrage DB nach Fahrer status verfügbar" style="text;html=1;strokeColor=none;fillColor=none;align=center;verticalAlign=middle;whiteSpace=wrap;rounded=0;" vertex="1" parent="1">
          <mxGeometry x="735" y="3190" width="155" height="30" as="geometry" />
        </mxCell>
        <mxCell id="RnnJeEHu4AmgaNz4vwLU-166" value="1" style="text;html=1;strokeColor=none;fillColor=none;align=center;verticalAlign=middle;whiteSpace=wrap;rounded=0;" vertex="1" parent="1">
          <mxGeometry x="660" y="3200" width="60" height="30" as="geometry" />
        </mxCell>
        <mxCell id="RnnJeEHu4AmgaNz4vwLU-168" value="Wenn Fahrer verfügbar Status anpassen" style="text;html=1;strokeColor=none;fillColor=none;align=center;verticalAlign=middle;whiteSpace=wrap;rounded=0;" vertex="1" parent="1">
          <mxGeometry x="710" y="3340" width="120" height="30" as="geometry" />
        </mxCell>
        <mxCell id="RnnJeEHu4AmgaNz4vwLU-169" value="2" style="text;html=1;strokeColor=none;fillColor=none;align=center;verticalAlign=middle;whiteSpace=wrap;rounded=0;" vertex="1" parent="1">
          <mxGeometry x="675" y="3350" width="60" height="30" as="geometry" />
        </mxCell>
        <mxCell id="RnnJeEHu4AmgaNz4vwLU-171" value="Fahrer Lieferwert = Paket ID" style="text;html=1;strokeColor=none;fillColor=none;align=center;verticalAlign=middle;whiteSpace=wrap;rounded=0;" vertex="1" parent="1">
          <mxGeometry x="675" y="3090" width="60" height="30" as="geometry" />
        </mxCell>
        <mxCell id="RnnJeEHu4AmgaNz4vwLU-173" value="3" style="text;html=1;strokeColor=none;fillColor=none;align=center;verticalAlign=middle;whiteSpace=wrap;rounded=0;" vertex="1" parent="1">
          <mxGeometry x="600" y="3110" width="60" height="30" as="geometry" />
        </mxCell>
        <mxCell id="RnnJeEHu4AmgaNz4vwLU-175" value="Email an Fahrer" style="text;html=1;strokeColor=none;fillColor=none;align=center;verticalAlign=middle;whiteSpace=wrap;rounded=0;" vertex="1" parent="1">
          <mxGeometry x="860" y="3390" width="60" height="30" as="geometry" />
        </mxCell>
        <mxCell id="RnnJeEHu4AmgaNz4vwLU-176" value="4" style="text;html=1;strokeColor=none;fillColor=none;align=center;verticalAlign=middle;whiteSpace=wrap;rounded=0;" vertex="1" parent="1">
          <mxGeometry x="765" y="3400" width="60" height="30" as="geometry" />
        </mxCell>
        <mxCell id="RnnJeEHu4AmgaNz4vwLU-177" value="&lt;h1&gt;&lt;span style=&quot;background-color: initial;&quot;&gt;DHL Kochbuch&lt;br&gt;&lt;/span&gt;&lt;span style=&quot;background-color: initial; font-size: 12px; font-weight: normal;&quot;&gt;&lt;br&gt;&lt;/span&gt;1. Lambda Export Item in SQS&amp;nbsp;&lt;/h1&gt;&lt;h1&gt;2. Füllen DynamoDB (Table Fahrer) mit Dummy Fahrerwerten ( 10 Fahrer mit BSP daten, alle ini verfügbar)&amp;nbsp;&amp;nbsp;&lt;/h1&gt;&lt;h1&gt;3. LAMBDA fragt Queue an&lt;/h1&gt;&lt;h1&gt;4. Anfrage an DynamoDB (Table Fahrer) ob ein Fahrer verfügbar ist&lt;/h1&gt;&lt;h1&gt;&amp;nbsp;5. LAMBDA passt DynamoDB (Table Fahrer) den Status des gewählten Fahrers an ( nicht verfügbar)&amp;nbsp;&lt;/h1&gt;&lt;h1&gt;&amp;nbsp;6. LAMBDA passt DynamoDB (Table Fahrer) Lieferung und zwar mit Paket_ID&amp;nbsp;&amp;nbsp;&lt;/h1&gt;&lt;h1&gt;7. LAMBDA Infos an SNS weiterreichen um EMAIL zu versenden Fahrer_Email, Paket_ID, DynamoDB Table ITEM Werte in formatierte Variante&lt;br&gt;&lt;br&gt;&lt;br&gt;&lt;br&gt;Hallo Fahrer Name#,&amp;nbsp;&lt;/h1&gt;&lt;h1&gt;dein Pakte hat die ID paket_id#. Das Paket soll an Adresse 123. Weitere INfos restrictions !!!!!!!&amp;nbsp; Weitere Infos&amp;nbsp;&lt;/h1&gt;" style="text;html=1;strokeColor=none;fillColor=none;spacing=5;spacingTop=-20;whiteSpace=wrap;overflow=hidden;rounded=0;" vertex="1" parent="1">
          <mxGeometry y="4000" width="1550" height="1120" as="geometry" />
        </mxCell>
      </root>
    </mxGraphModel>
  </diagram>
</mxfile>
